<?xml version="1.0" encoding="UTF-8" standalone="no"?>
<svg
   xmlns:dc="http://purl.org/dc/elements/1.1/"
   xmlns:cc="http://creativecommons.org/ns#"
   xmlns:rdf="http://www.w3.org/1999/02/22-rdf-syntax-ns#"
   xmlns:svg="http://www.w3.org/2000/svg"
   xmlns="http://www.w3.org/2000/svg"
   id="svg18"
   version="1.1"
   fill-rule="evenodd"
   viewBox="0 0 1055.91 299.055"
   height="299.055pt"
   width="1055.91pt">
  <metadata
     id="metadata24">
    <rdf:RDF>
      <cc:Work
         rdf:about="">
        <dc:format>image/svg+xml</dc:format>
        <dc:type
           rdf:resource="http://purl.org/dc/dcmitype/StillImage" />
      </cc:Work>
    </rdf:RDF>
  </metadata>
  <defs
     id="defs22" />
  <g
     id="g16">
    <path
       id="path2"
       d="M 810.289 222.853C 865.848 174.599 909.633 133.588 941.65 99.87C 973.668 66.1415 989.71 44.4352 989.71 34.6819C 989.71 31.9841 989.078 29.2328 987.888 26.431C 986.629 23.634 984.736 20.7865 982.144 17.8948C 1003.58 22.6233 1019.98 29.7673 1031.26 39.4639C 1042.53 49.1117 1048.21 60.7398 1048.21 74.293C 1048.21 87.8557 1041.13 103.484 1026.98 121.144C 1012.83 138.803 980.323 169.441 929.528 212.956L 960.356 212.956C 984.035 212.956 1007.71 212.001 1031.4 210.114C 1036.16 209.772 1039.1 209.584 1040.22 209.584C 1042.67 209.584 1044.71 209.918 1046.25 210.55C 1047.86 211.224 1048.63 212.096 1048.63 213.248C 1048.63 217.111 1047.02 219.908 1043.86 221.647C 1040.78 223.385 1035.53 224.252 1028.31 224.252C 1022.71 224.252 1010.94 224.011 993.003 223.575C 975.07 223.096 959.936 222.853 947.604 222.853L 810.289 222.853zM 771.889 222.852C 828.579 173.826 873.063 132.619 905.435 99.1448C 937.814 65.7063 953.984 44.5235 953.984 35.5506C 953.984 30.8284 950.836 27.3534 944.454 25.0877C 938.074 22.822 928.204 21.7073 914.745 21.7073C 883.151 21.7073 856.456 27.1563 834.598 38.0118C 812.814 48.9241 801.882 61.9932 801.882 77.2398C 801.882 86.5533 806.295 95.6697 815.194 104.499C 817.437 106.763 818.482 108.212 818.482 108.747C 818.482 110.09 817.861 111.203 816.594 112.077C 815.261 112.994 813.586 113.42 811.542 113.42C 806.1 113.42 800.837 109.852 795.859 102.669C 790.883 95.5263 788.366 87.4221 788.366 78.405C 788.366 59.2419 800.557 43.6658 825.005 31.5931C 849.457 19.5315 881.462 13.5038 921.127 13.5038C 937.449 13.5038 949.915 15.0489 958.599 18.1897C 967.288 21.2752 971.636 25.7121 971.636 31.4543C 971.636 42.6 956.02 64.4024 924.831 96.9768C 893.662 129.535 847.969 171.512 787.944 222.852L 771.889 222.852z"
       style="stroke:none; fill:#e21c2a" />
    <path
       id="path4"
       d="M 484.907 290.453L 484.907 18.4126L 586.282 18.4126C 586.143 27.7874 585.931 37.3575 585.581 46.9904C 585.232 56.6864 585.022 61.8239 585.022 62.4032L 585.022 86.3576C 614.026 72.4223 643.45 57.2656 673.226 40.8245C 702.933 24.3855 718.904 16.1628 721.147 16.1628C 727.032 16.1628 731.236 16.6119 733.756 17.4472C 736.279 18.3475 737.54 19.888 737.54 22.0076C 737.54 25.1557 725.842 31.8337 702.442 42.1089C 679.041 52.384 657.813 62.8523 638.828 73.5136C 664.258 121.937 690.532 169.203 717.645 215.314C 744.758 261.361 758.279 284.994 758.279 286.085C 758.279 287.884 757.018 289.427 754.565 290.709C 752.113 292.058 749.1 292.703 745.528 292.703C 740.764 292.703 733.549 282.874 724.018 263.157C 719.185 253.27 715.191 245.306 711.898 239.268C 694.385 205.809 678.762 176.33 664.959 150.836C 651.228 125.404 638.197 101.705 625.865 79.7425C 619.982 82.6324 613.745 85.9714 607.09 89.6966C 600.504 93.4868 593.148 97.8521 585.022 102.862L 585.022 246.59C 585.022 247.104 585.232 252.177 585.581 261.875C 585.931 271.508 586.143 281.078 586.282 290.453L 484.907 290.453z"
       style="stroke:none; fill:#e21c2a" />
    <path
       id="path6"
       d="M 453.101 290.453C 453.242 281.913 453.38 272.792 453.592 262.966C 453.802 253.205 453.943 247.747 453.943 246.59L 453.943 62.4032C 453.943 61.1817 453.802 55.6601 453.592 45.897C 453.38 36.073 453.242 26.9521 453.101 18.4126L 467.672 18.4126L 467.672 290.453L 453.101 290.453z"
       style="stroke:none; fill:#e21c2a" />
    <path
       id="path8"
       d="M 159.973 269.581L 66.0232 152.569C 52.1509 196.178 40.5221 237.6 31.1325 276.711C 30.1525 280.241 29.5229 282.553 29.2416 283.71C 28.3329 287.179 27.1408 289.618 25.7389 291.03C 24.4083 292.379 22.5174 293.087 19.9927 293.087C 14.8111 293.087 11.3062 292.638 9.48458 291.672C 7.59367 290.709 6.68284 289.105 6.68284 286.665C 6.68284 286.085 6.8927 284.994 7.31454 283.389C 7.73428 281.848 8.29463 279.92 9.1362 277.674L 60.8395 123.221L 168.38 257.701L 159.973 269.581z"
       style="stroke:none; fill:#e21c2a" />
    <path
       id="path10"
       d="M 294.276 290.453C 287.412 266.114 276.761 229.379 262.188 180.186L 252.171 145.57C 234.795 168.047 220.084 187.313 208.033 203.37C 195.982 219.425 186.104 232.783 178.469 243.442L 67.635 104.404L 100.492 6.91599C 122.211 36.5222 143.089 64.2018 163.056 89.8897C 183.021 115.58 202.358 139.662 220.995 162.139L 258.124 113.972L 309.198 290.453L 294.276 290.453z"
       style="stroke:none; fill:#e21c2a" />
    <path
       id="path12"
       d="M 327.696 290.453L 271.436 96.6328C 278.303 87.386 286.079 76.7246 294.837 64.7789C 303.595 52.7702 317.746 33.5022 337.153 6.91599C 353.056 55.211 368.539 102.99 383.672 150.195C 398.734 197.397 413.518 244.15 427.881 290.453L 327.696 290.453z"
       style="stroke:none; fill:#e21c2a" />
    <path
       id="path14"
       d="M 773.115 293.496L 1049.68 293.496L 1049.68 239.982L 773.115 239.982L 773.115 293.496z"
       style="stroke:none; fill:#e21c2a" />
  </g>
</svg>
